<svg width="26" height="32" viewBox="0 0 26 32" fill="none" xmlns="http://www.w3.org/2000/svg">
<path d="M3.49992 31.8334C2.62909 31.8334 1.88334 31.5231 1.26267 30.9024C0.642004 30.2817 0.332199 29.5365 0.333255 28.6667V9.66675C0.333255 8.79591 0.643588 8.05016 1.26425 7.4295C1.88492 6.80883 2.63014 6.49903 3.49992 6.50008H6.66659C6.66659 4.75841 7.28673 3.26744 8.52701 2.02716C9.76728 0.786887 11.2583 0.166748 12.9999 0.166748C14.7416 0.166748 16.2326 0.786887 17.4728 2.02716C18.7131 3.26744 19.3333 4.75841 19.3333 6.50008H22.4999C23.3708 6.50008 24.1165 6.81041 24.7372 7.43108C25.3578 8.05175 25.6676 8.79697 25.6666 9.66675V28.6667C25.6666 29.5376 25.3563 30.2833 24.7356 30.904C24.1149 31.5247 23.3697 31.8345 22.4999 31.8334H3.49992ZM3.49992 28.6667H22.4999V9.66675H19.3333V12.8334C19.3333 13.282 19.1813 13.6583 18.8773 13.9623C18.5733 14.2663 18.1975 14.4178 17.7499 14.4167C17.3013 14.4167 16.925 14.2647 16.621 13.9607C16.317 13.6567 16.1655 13.281 16.1666 12.8334V9.66675H9.83326V12.8334C9.83326 13.282 9.68126 13.6583 9.37726 13.9623C9.07326 14.2663 8.69748 14.4178 8.24992 14.4167C7.80131 14.4167 7.425 14.2647 7.121 13.9607C6.817 13.6567 6.66553 13.281 6.66659 12.8334V9.66675H3.49992V28.6667ZM9.83326 6.50008H16.1666C16.1666 5.62925 15.8563 4.8835 15.2356 4.26283C14.6149 3.64216 13.8697 3.33236 12.9999 3.33341C12.1291 3.33341 11.3833 3.64375 10.7627 4.26441C10.142 4.88508 9.8322 5.6303 9.83326 6.50008Z" fill="white"/>
</svg>
