<svg width="47" height="44" viewBox="0 0 47 44" fill="none" xmlns="http://www.w3.org/2000/svg">
<path d="M23.5 43.5522L20.0925 40.4667C16.1367 36.8671 12.8662 33.7618 10.2812 31.1511C7.69625 28.5403 5.64 26.1962 4.1125 24.1187C2.585 22.0427 1.5181 20.1345 0.9118 18.394C0.3055 16.6535 0.00156667 14.8734 0 13.0538C0 9.33543 1.23375 6.23022 3.70125 3.73813C6.16875 1.24604 9.24333 0 12.925 0C14.9617 0 16.9004 0.435126 18.7413 1.30538C20.5821 2.17563 22.1683 3.4019 23.5 4.98417C24.8317 3.4019 26.4179 2.17563 28.2587 1.30538C30.0996 0.435126 32.0383 0 34.075 0C37.7567 0 40.8312 1.24604 43.2987 3.73813C45.7662 6.23022 47 9.33543 47 13.0538C47 14.8734 46.6961 16.6535 46.0882 18.394C45.4803 20.1345 44.4134 22.0427 42.8875 24.1187C41.36 26.1962 39.3037 28.5403 36.7187 31.1511C34.1337 33.7618 30.8633 36.8671 26.9075 40.4667L23.5 43.5522ZM23.5 37.144C27.26 33.7421 30.3542 30.8243 32.7825 28.3908C35.2108 25.9573 37.13 23.8418 38.54 22.0443C39.95 20.2437 40.9292 18.6408 41.4775 17.2357C42.0258 15.8307 42.3 14.4367 42.3 13.0538C42.3 10.6804 41.5167 8.70252 39.95 7.12025C38.3833 5.53797 36.425 4.74683 34.075 4.74683C32.2342 4.74683 30.5304 5.27056 28.9637 6.31803C27.3971 7.3655 26.32 8.70094 25.7325 10.3244H21.2675C20.68 8.70252 19.6029 7.36708 18.0362 6.31803C16.4696 5.26898 14.7658 4.74525 12.925 4.74683C10.575 4.74683 8.61667 5.53797 7.05 7.12025C5.48333 8.70252 4.7 10.6804 4.7 13.0538C4.7 14.4383 4.97417 15.8331 5.5225 17.2381C6.07083 18.6432 7.05 20.2452 8.46 22.0443C9.87 23.8433 11.7892 25.9596 14.2175 28.3932C16.6458 30.8267 19.74 33.7436 23.5 37.144Z" fill="#858B95"/>
</svg>
