<svg width="30" height="30" viewBox="0 0 30 30" fill="none" xmlns="http://www.w3.org/2000/svg">
<path d="M20.8333 18.3333H19.5167L19.05 17.8833C20.7398 15.9234 21.6685 13.4212 21.6667 10.8333C21.6667 8.69071 21.0313 6.59619 19.8409 4.81466C18.6505 3.03313 16.9586 1.64459 14.9791 0.824643C12.9995 0.00469392 10.8213 -0.209842 8.71986 0.208164C6.6184 0.626171 4.68808 1.65795 3.17301 3.17301C1.65795 4.68808 0.626171 6.6184 0.208164 8.71986C-0.209842 10.8213 0.00469392 12.9995 0.824643 14.9791C1.64459 16.9586 3.03313 18.6505 4.81466 19.8409C6.59619 21.0313 8.69071 21.6667 10.8333 21.6667C13.5167 21.6667 15.9833 20.6833 17.8833 19.05L18.3333 19.5167V20.8333L26.6667 29.15L29.15 26.6667L20.8333 18.3333ZM10.8333 18.3333C6.68334 18.3333 3.33334 14.9833 3.33334 10.8333C3.33334 6.68334 6.68334 3.33334 10.8333 3.33334C14.9833 3.33334 18.3333 6.68334 18.3333 10.8333C18.3333 14.9833 14.9833 18.3333 10.8333 18.3333Z" fill="white"/>
</svg>
