<svg width="21" height="22" viewBox="0 0 21 22" fill="none" xmlns="http://www.w3.org/2000/svg">
<path d="M6.12516 0.929504H14.8752C18.2085 0.929504 20.9168 3.63784 20.9168 6.97117V15.7212C20.9168 17.3235 20.2803 18.8602 19.1473 19.9933C18.0142 21.1263 16.4775 21.7628 14.8752 21.7628H6.12516C2.79183 21.7628 0.0834961 19.0545 0.0834961 15.7212V6.97117C0.0834961 5.36882 0.720027 3.8321 1.85306 2.69907C2.98609 1.56604 4.52281 0.929504 6.12516 0.929504ZM5.91683 3.01284C4.92227 3.01284 3.96844 3.40793 3.26518 4.11119C2.56192 4.81445 2.16683 5.76828 2.16683 6.76284V15.9295C2.16683 18.0024 3.84391 19.6795 5.91683 19.6795H15.0835C16.0781 19.6795 17.0319 19.2844 17.7351 18.5812C18.4384 17.8779 18.8335 16.9241 18.8335 15.9295V6.76284C18.8335 4.68992 17.1564 3.01284 15.0835 3.01284H5.91683ZM15.9689 4.57534C16.3142 4.57534 16.6454 4.71252 16.8896 4.95671C17.1338 5.2009 17.271 5.53209 17.271 5.87742C17.271 6.22276 17.1338 6.55395 16.8896 6.79813C16.6454 7.04232 16.3142 7.1795 15.9689 7.1795C15.6236 7.1795 15.2924 7.04232 15.0482 6.79813C14.804 6.55395 14.6668 6.22276 14.6668 5.87742C14.6668 5.53209 14.804 5.2009 15.0482 4.95671C15.2924 4.71252 15.6236 4.57534 15.9689 4.57534ZM10.5002 6.13784C11.8815 6.13784 13.2063 6.68657 14.183 7.66332C15.1598 8.64008 15.7085 9.96484 15.7085 11.3462C15.7085 12.7275 15.1598 14.0523 14.183 15.029C13.2063 16.0058 11.8815 16.5545 10.5002 16.5545C9.11883 16.5545 7.79407 16.0058 6.81732 15.029C5.84056 14.0523 5.29183 12.7275 5.29183 11.3462C5.29183 9.96484 5.84056 8.64008 6.81732 7.66332C7.79407 6.68657 9.11883 6.13784 10.5002 6.13784ZM10.5002 8.22117C9.67136 8.22117 8.87651 8.55041 8.29045 9.13646C7.7044 9.72251 7.37516 10.5174 7.37516 11.3462C7.37516 12.175 7.7044 12.9698 8.29045 13.5559C8.87651 14.1419 9.67136 14.4712 10.5002 14.4712C11.329 14.4712 12.1238 14.1419 12.7099 13.5559C13.2959 12.9698 13.6252 12.175 13.6252 11.3462C13.6252 10.5174 13.2959 9.72251 12.7099 9.13646C12.1238 8.55041 11.329 8.22117 10.5002 8.22117Z" fill="white"/>
</svg>
