<svg width="21" height="22" viewBox="0 0 21 22" fill="none" xmlns="http://www.w3.org/2000/svg">
<path d="M17.8436 3.96076C16.8886 2.99609 15.7511 2.23124 14.4974 1.71081C13.2437 1.19037 11.8989 0.924777 10.5415 0.929505C4.854 0.929505 0.218587 5.56492 0.218587 11.2524C0.218587 13.0753 0.697754 14.8462 1.59359 16.4087L0.135254 21.7628L5.604 20.3253C7.11442 21.1483 8.81234 21.5858 10.5415 21.5858C16.229 21.5858 20.8644 16.9503 20.8644 11.2628C20.8644 8.50242 19.7915 5.90867 17.8436 3.96076ZM10.5415 19.8358C8.99984 19.8358 7.48942 19.4191 6.1665 18.6378L5.854 18.4503L2.604 19.3045L3.46859 16.1378L3.26025 15.8149C2.40374 14.4472 1.94894 12.8662 1.94775 11.2524C1.94775 6.52325 5.80192 2.66909 10.5311 2.66909C12.8228 2.66909 14.979 3.56492 16.5936 5.18992C17.393 5.98572 18.0266 6.93228 18.4575 7.97474C18.8885 9.0172 19.1082 10.1348 19.104 11.2628C19.1248 15.992 15.2707 19.8358 10.5415 19.8358ZM15.2498 13.4191C14.9894 13.2941 13.7186 12.6691 13.4894 12.5753C13.2498 12.492 13.0832 12.4503 12.9061 12.7003C12.729 12.9608 12.2394 13.5441 12.0936 13.7108C11.9478 13.8878 11.7915 13.9087 11.5311 13.7733C11.2707 13.6483 10.4373 13.367 9.45817 12.492C8.68734 11.8045 8.17692 10.9608 8.02067 10.7003C7.87484 10.4399 7.99984 10.3045 8.13525 10.1691C8.24984 10.0545 8.39567 9.867 8.52067 9.72117C8.64567 9.57534 8.69775 9.46075 8.78109 9.29409C8.86442 9.117 8.82275 8.97117 8.76025 8.84617C8.69775 8.72117 8.17692 7.45034 7.96859 6.92951C7.76025 6.42951 7.5415 6.49201 7.38525 6.48159H6.88525C6.70817 6.48159 6.43734 6.54409 6.19775 6.80451C5.96859 7.06492 5.30192 7.68992 5.30192 8.96076C5.30192 10.2316 6.229 11.4608 6.354 11.6274C6.479 11.8045 8.17692 14.4087 10.7603 15.5233C11.3748 15.7941 11.854 15.9503 12.229 16.0649C12.8436 16.2628 13.4061 16.2316 13.854 16.1691C14.354 16.0962 15.3853 15.5441 15.5936 14.9399C15.8123 14.3358 15.8123 13.8253 15.7394 13.7108C15.6665 13.5962 15.5103 13.5441 15.2498 13.4191Z" fill="white"/>
</svg>
